{"title":"BBC Proms 2011_14 Mahler's Ninth Symphony [DVD+MP4]","uid":6572494,"size":3652144918,"categoryP":"video","categoryS":"music_videos","magnet":"?xt=urn:btih:ebabd382e4bb2fd6e1160939d10ff271946745cd&amp;dn=BBC+Proms+2011_14+Mahler%5C%27s+Ninth+Symphony+%5BDVD%2BMP4%5D&amp;tr=udp%3A%2F%2Ftracker.openbittorrent.com%3A80&amp;tr=udp%3A%2F%2Fopen.demonii.com%3A1337&amp;tr=udp%3A%2F%2Ftracker.coppersurfer.tk%3A6969&amp;tr=udp%3A%2F%2Fexodus.desync.com%3A6969","seeders":1,"leechers":0,"uploader":"Hathor","files":4,"time":1312032235,"description":"Note: This torrent contains both a DVD ISO and an MP4 Video of the concert so I suggest you select whichever you prefer. Video is of nearly equal quality. Audio seems to be slightly better on the DVD imo. \n\nBBC Proms 2011, Number 14\nThanks to GringoLoco &amp; the BBC\n\nBBC4 TV, 25 July\n\nMahler:\nSymphony No. 9 (73 mins)\nEncore - Elgar: Elegy for Strings\n\nStuttgart Radio Symphony Orchestra\nSir Roger Norrington: conductor\n\nRuntime: 1:29\nFormat: DVD ISO PAL 16:9\n\nVideo\nID                               : 224 (0xE0)\nFormat                           : MPEG Video\nFormat version                   : Version 2\nFormat profile                   : Main@Main\nFormat settings, BVOP            : Yes\nFormat settings, Matrix          : Default\nFormat settings, GOP             : M=3, N=12\nBit rate mode                    : Variable\nBit rate                         : 3 898 Kbps\nNominal bit rate                 : 9 544 Kbps\nWidth                            : 720 pixels\nHeight                           : 576 pixels\nDisplay aspect ratio             : 16:9\nFrame rate                       : 25.000 fps\nStandard                         : PAL\nColor space                      : YUV\nChroma subsampling               : 4:2:0\nBit depth                        : 8 bits\nScan type                        : Interlaced\nScan order                       : Top Field First\nCompression mode                 : Lossy\nBits/(Pixel*Frame)               : 0.376\n\nAudio\nID                               : 192 (0xC0)\nFormat                           : MPEG Audio\nFormat version                   : Version 1\nFormat profile                   : Layer 2\nBit rate mode                    : Constant\nBit rate                         : 256 Kbps\nChannel(s)                       : 2 channels\nSampling rate                    : 48.0 KHz\nCompression mode                 : Lossy\n\n************************************************\n\nFormat: MP4 468p\n\nFormat                           : MPEG-4\nFormat profile                   : Base Media\nCodec ID                         : isom\nFile size                        : 957 MiB\nDuration                         : 1h 29mn\nOverall bit rate                 : 1 502 Kbps\nWriting application              : Lavf52.93.0\n\nVideo\nID                               : 1\nFormat                           : AVC\nFormat/Info                      : Advanced Video Codec\nFormat profile                   : &lt;a class=&quot;__cf_email__&quot; href=&quot;/cdn-cgi/l/email-protection&quot; data-cfemail=&quot;0c416d65624c403f223c&quot;&gt;[email&amp;#160;protected]&lt;/a&gt;&lt;script cf-hash='f9e31' type=&quot;text/javascript&quot;&gt;\n/* &lt;![CDATA[ */!function(){try{var t=&quot;currentScript&quot;in document?document.currentScript:function(){for(var t=document.getElementsByTagName(&quot;script&quot;),e=t.length;e--;)if(t[e].getAttribute(&quot;cf-hash&quot;))return t[e]}();if(t&amp;&amp;t.previousSibling){var e,r,n,i,c=t.previousSibling,a=c.getAttribute(&quot;data-cfemail&quot;);if(a){for(e=&quot;&quot;,r=parseInt(a.substr(0,2),16),n=2;a.length-n;n+=2)i=parseInt(a.substr(n,2),16)^r,e+=String.fromCharCode(i);e=document.createTextNode(e),c.parentNode.replaceChild(e,c)}}}catch(u){}}();/* ]]&gt; */&lt;/script&gt;\nFormat settings, CABAC           : Yes\nFormat settings, ReFrames        : 4 frames\nCodec ID                         : avc1\nCodec ID/Info                    : Advanced Video Coding\nDuration                         : 1h 29mn\nBit rate mode                    : Constant\nBit rate                         : 1 404 Kbps\nWidth                            : 832 pixels\nHeight                           : 468 pixels\nDisplay aspect ratio             : 16:9\nFrame rate mode                  : Constant\nFrame rate                       : 25.000 fps\nStandard                         : PAL\nColor space                      : YUV\nChroma subsampling               : 4:2:0\nBit depth                        : 8 bits\nScan type                        : Progressive\nBits/(Pixel*Frame)               : 0.144\nStream size                      : 893 MiB (93%)\n\nAudio\nID                               : 2\nFormat                           : AAC\nFormat/Info                      : Advanced Audio Codec\nFormat profile                   : HE-AAC / LC\nCodec ID                         : 40\nDuration                         : 1h 29mn\nBit rate mode                    : Variable\nBit rate                         : 96.0 Kbps\nChannel(s)                       : 2 channels\nChannel positions                : Front: L R\nSampling rate                    : 48.0 KHz / 24.0 KHz\nCompression mode                 : Lossy\nStream size                      : 60.3 MiB (6%)\n\n\n\n\n\n\n\n","torrent":{"xt":"urn:btih:ebabd382e4bb2fd6e1160939d10ff271946745cd","amp;dn":"BBC+Proms+2011_14+Mahler%5C%27s+Ninth+Symphony+%5BDVD%2BMP4%5D","amp;tr":["udp%3A%2F%2Ftracker.openbittorrent.com%3A80","udp%3A%2F%2Fopen.demonii.com%3A1337","udp%3A%2F%2Ftracker.coppersurfer.tk%3A6969","udp%3A%2F%2Fexodus.desync.com%3A6969"],"infoHash":"ebabd382e4bb2fd6e1160939d10ff271946745cd","infoHashBuffer":{"type":"Buffer","data":[235,171,211,130,228,187,47,214,225,22,9,57,209,15,242,113,148,103,69,205]},"announce":[],"urlList":[]}}